HIERARCHY
ROOT Hips
{
    OFFSET 0.000000 0.000000 0.000000
    CHANNELS 6 Xposition Yposition Zposition Zrotation Xrotation Yrotation
    JOINT Spine
    {
        OFFSET -0.000000 0.072775 0.000000
        CHANNELS 3 Zrotation Xrotation Yrotation
        JOINT Spine1
        {
            OFFSET -0.000000 0.195886 0.000000
            CHANNELS 3 Zrotation Xrotation Yrotation
            JOINT Neck
            {
                OFFSET -0.000000 0.195082 0.017735
                CHANNELS 3 Zrotation Xrotation Yrotation
                JOINT Head
                {
                    OFFSET -0.000000 0.124250 -0.017750
                    CHANNELS 3 Zrotation Xrotation Yrotation
                    End Site
                    {
                        OFFSET -0.000000 0.177500 0.000000
                    }
                }
            }
            JOINT LeftShoulder
            {
                OFFSET 0.035772 0.183979 -0.000787
                CHANNELS 3 Zrotation Xrotation Yrotation
                JOINT LeftArm
                {
                    OFFSET 0.089258 0.000000 0.000000
                    CHANNELS 3 Zrotation Xrotation Yrotation
                    JOINT LeftForeArm
                    {
                        OFFSET 0.285064 0.000000 0.000000
                        CHANNELS 3 Zrotation Xrotation Yrotation
                        JOINT LeftHand
                        {
                            OFFSET 0.227012 0.000000 0.000000
                            CHANNELS 3 Zrotation Xrotation Yrotation
                            JOINT LeftHandThumb1
                            {
                                OFFSET 0.022188 -0.013313 0.044375
                                CHANNELS 3 Zrotation Xrotation Yrotation
                                JOINT LeftHandThumb2
                                {
                                    OFFSET 0.026625 0.000000 0.000000
                                    CHANNELS 3 Zrotation Xrotation Yrotation
                                    JOINT LeftHandThumb3
                                    {
                                        OFFSET 0.026625 0.000000 0.000000
                                        CHANNELS 3 Zrotation Xrotation Yrotation
                                        End Site
                                        {
                                            OFFSET 0.023630 0.000000 0.000000
                                        }
                                    }
                                }
                            }
                            JOINT LeftHandIndex1
                            {
                                OFFSET 0.079875 0.000000 0.031063
                                CHANNELS 3 Zrotation Xrotation Yrotation
                                JOINT LeftHandIndex2
                                {
                                    OFFSET 0.044375 0.000000 0.000000
                                    CHANNELS 3 Zrotation Xrotation Yrotation
                                    JOINT LeftHandIndex3
                                    {
                                        OFFSET 0.022188 0.000000 0.000000
                                        CHANNELS 3 Zrotation Xrotation Yrotation
                                        End Site
                                        {
                                            OFFSET 0.019691 0.000000 0.000000
                                        }
                                    }
                                }
                            }
                            JOINT LeftHandMiddle1
                            {
                                OFFSET 0.079875 0.000000 0.010295
                                CHANNELS 3 Zrotation Xrotation Yrotation
                                JOINT LeftHandMiddle2
                                {
                                    OFFSET 0.048813 0.000000 0.000000
                                    CHANNELS 3 Zrotation Xrotation Yrotation
                                    JOINT LeftHandMiddle3
                                    {
                                        OFFSET 0.026625 0.000000 0.000000
                                        CHANNELS 3 Zrotation Xrotation Yrotation
                                        End Site
                                        {
                                            OFFSET 0.023630 0.000000 0.000000
                                        }
                                    }
                                }
                            }
                            JOINT LeftHandRing1
                            {
                                OFFSET 0.075438 0.000000 -0.010295
                                CHANNELS 3 Zrotation Xrotation Yrotation
                                JOINT LeftHandRing2
                                {
                                    OFFSET 0.044375 0.000000 0.000000
                                    CHANNELS 3 Zrotation Xrotation Yrotation
                                    JOINT LeftHandRing3
                                    {
                                        OFFSET 0.022188 0.000000 0.000000
                                        CHANNELS 3 Zrotation Xrotation Yrotation
                                        End Site
                                        {
                                            OFFSET 0.019691 0.000000 0.000000
                                        }
                                    }
                                }
                            }
                            JOINT LeftHandPinky1
                            {
                                OFFSET 0.071000 0.000000 -0.031063
                                CHANNELS 3 Zrotation Xrotation Yrotation
                                JOINT LeftHandPinky2
                                {
                                    OFFSET 0.035500 0.000000 0.000000
                                    CHANNELS 3 Zrotation Xrotation Yrotation
                                    JOINT LeftHandPinky3
                                    {
                                        OFFSET 0.017750 0.000000 0.000000
                                        CHANNELS 3 Zrotation Xrotation Yrotation
                                        End Site
                                        {
                                            OFFSET 0.015753 0.000000 0.000000
                                        }
                                    }
                                }
                            }
                        }
                    }
                }
            }
            JOINT RightShoulder
            {
                OFFSET -0.035163 0.183979 -0.000787
                CHANNELS 3 Zrotation Xrotation Yrotation
                JOINT RightArm
                {
                    OFFSET -0.089258 0.000000 0.000000
                    CHANNELS 3 Zrotation Xrotation Yrotation
                    JOINT RightForeArm
                    {
                        OFFSET -0.285064 0.000000 0.000000
                        CHANNELS 3 Zrotation Xrotation Yrotation
                        JOINT RightHand
                        {
                            OFFSET -0.227012 0.000000 0.000000
                            CHANNELS 3 Zrotation Xrotation Yrotation
                            JOINT RightHandThumb1
                            {
                                OFFSET -0.022188 -0.013313 0.044375
                                CHANNELS 3 Zrotation Xrotation Yrotation
                                JOINT RightHandThumb2
                                {
                                    OFFSET -0.026625 0.000000 0.000000
                                    CHANNELS 3 Zrotation Xrotation Yrotation
                                    JOINT RightHandThumb3
                                    {
                                        OFFSET -0.026625 0.000000 0.000000
                                        CHANNELS 3 Zrotation Xrotation Yrotation
                                        End Site
                                        {
                                            OFFSET -0.023630 0.000000 0.000000
                                        }
                                    }
                                }
                            }
                            JOINT RightHandIndex1
                            {
                                OFFSET -0.079875 0.000000 0.031063
                                CHANNELS 3 Zrotation Xrotation Yrotation
                                JOINT RightHandIndex2
                                {
                                    OFFSET -0.044375 0.000000 0.000000
                                    CHANNELS 3 Zrotation Xrotation Yrotation
                                    JOINT RightHandIndex3
                                    {
                                        OFFSET -0.022188 0.000000 0.000000
                                        CHANNELS 3 Zrotation Xrotation Yrotation
                                        End Site
                                        {
                                            OFFSET -0.019691 0.000000 0.000000
                                        }
                                    }
                                }
                            }
                            JOINT RightHandMiddle1
                            {
                                OFFSET -0.079875 0.000000 0.010295
                                CHANNELS 3 Zrotation Xrotation Yrotation
                                JOINT RightHandMiddle2
                                {
                                    OFFSET -0.048813 0.000000 0.000000
                                    CHANNELS 3 Zrotation Xrotation Yrotation
                                    JOINT RightHandMiddle3
                                    {
                                        OFFSET -0.026625 0.000000 0.000000
                                        CHANNELS 3 Zrotation Xrotation Yrotation
                                        End Site
                                        {
                                            OFFSET -0.023630 0.000000 0.000000
                                        }
                                    }
                                }
                            }
                            JOINT RightHandRing1
                            {
                                OFFSET -0.075438 0.000000 -0.010295
                                CHANNELS 3 Zrotation Xrotation Yrotation
                                JOINT RightHandRing2
                                {
                                    OFFSET -0.044375 0.000000 0.000000
                                    CHANNELS 3 Zrotation Xrotation Yrotation
                                    JOINT RightHandRing3
                                    {
                                        OFFSET -0.022188 0.000000 0.000000
                                        CHANNELS 3 Zrotation Xrotation Yrotation
                                        End Site
                                        {
                                            OFFSET -0.019691 0.000000 0.000000
                                        }
                                    }
                                }
                            }
                            JOINT RightHandPinky1
                            {
                                OFFSET -0.071000 0.000000 -0.031063
                                CHANNELS 3 Zrotation Xrotation Yrotation
                                JOINT RightHandPinky2
                                {
                                    OFFSET -0.035500 0.000000 0.000000
                                    CHANNELS 3 Zrotation Xrotation Yrotation
                                    JOINT RightHandPinky3
                                    {
                                        OFFSET -0.017750 0.000000 0.000000
                                        CHANNELS 3 Zrotation Xrotation Yrotation
                                        End Site
                                        {
                                            OFFSET -0.015753 0.000000 0.000000
                                        }
                                    }
                                }
                            }
                        }
                    }
                }
            }
        }
    }
    JOINT LeftUpLeg
    {
        OFFSET 0.088750 0.000000 0.000000
        CHANNELS 3 Zrotation Xrotation Yrotation
        JOINT LeftLeg
        {
            OFFSET -0.000000 -0.379026 0.000000
            CHANNELS 3 Zrotation Xrotation Yrotation
            JOINT LeftFoot
            {
                OFFSET -0.000000 -0.385721 0.000000
                CHANNELS 3 Zrotation Xrotation Yrotation
                JOINT LeftToeBase
                {
                    OFFSET -0.000000 -0.057688 0.133125
                    CHANNELS 3 Zrotation Xrotation Yrotation
                    End Site
                    {
                        OFFSET -0.000000 0.000000 0.035500
                    }
                }
            }
        }
    }
    JOINT RightUpLeg
    {
        OFFSET -0.088750 0.000000 0.000000
        CHANNELS 3 Zrotation Xrotation Yrotation
        JOINT RightLeg
        {
            OFFSET -0.000000 -0.379026 0.000000
            CHANNELS 3 Zrotation Xrotation Yrotation
            JOINT RightFoot
            {
                OFFSET -0.000000 -0.385721 0.000000
                CHANNELS 3 Zrotation Xrotation Yrotation
                JOINT RightToeBase
                {
                    OFFSET -0.000000 -0.057688 0.133125
                    CHANNELS 3 Zrotation Xrotation Yrotation
                    End Site
                    {
                        OFFSET -0.000000 0.000000 0.035500
                    }
                }
            }
        }
    }
}
MOTION
Frames:    4
Frame Time:    0.040000
3.238889    0.901877    1.549482    -38.778393    -7.795859    179.557358    -3.973713    8.986965    7.364493    -20.678778    12.725585    4.658832    -11.457363    5.467184    27.991592    -19.781767    -2.282336    27.363079    12.194983    -0.965372    -3.235625    16.138824    37.002842    -35.071335    13.078306    1.251832    -8.927969    60.428982    8.316911    -20.438610    14.702949    -9.581976    12.811426    -0.000000    0.000000    6.177423    -0.000000    0.000000    12.354845    45.000004    0.000000    -0.000000    0.000000    0.000000    0.000000    0.000000    0.000000    0.000000    35.368164    5.859196    11.980392    0.000000    0.000000    0.000000    0.000000    0.000000    0.000000    24.615639    9.502408    24.908710    0.000000    0.000000    0.000000    0.000000    0.000000    0.000000    12.887297    10.600158    38.799442    0.000000    0.000000    0.000000    0.000000    0.000000    0.000000    -11.478331    -3.534515    22.349541    123.423180    -17.977554    130.061203    102.496605    -66.201927    -93.468300    78.437401    72.712196    -116.288162    74.992531    19.159033    -117.761162    0.000000    0.000000    -45.000004    0.000000    0.000000    -89.999992    -8.468613    -2.388324    15.636028    0.000000    0.000000    0.000000    0.000000    0.000000    0.000000    -0.689586    -0.882148    10.601725    10.130615    0.000000    -0.000000    5.065308    0.000000    -0.000000    7.189777    -0.075935    5.411057    20.261230    0.000000    -0.000000    10.130614    0.000000    -0.000000    15.349416    0.000000    -0.000000    30.698832    0.000000    -0.000000    15.349416    0.000000    -0.000000    121.100899    -60.463749    68.246048    -150.945709    48.568363    128.845581    14.952263    -34.860626    22.212677    0.438737    9.922230    0.641258    -50.066162    -14.058750    -18.320839    6.910052    22.373285    -28.527361    9.478691    -11.593794    16.335381    -2.298596    2.484846    2.411815    
3.236722    0.901988    1.548916    -38.733978    -7.940869    179.619431    -4.209803    9.146461    7.518999    -20.483166    12.508035    4.639958    -11.310596    5.638261    28.089401    -19.964222    -1.859347    27.480536    12.521413    -0.997385    -3.290972    15.224174    37.030674    -34.234425    14.290073    1.225899    -10.054335    59.289120    8.872252    -20.246288    14.702949    -9.581976    12.811426    -0.000000    0.000000    6.177423    -0.000000    0.000000    12.354845    45.000004    0.000000    -0.000000    0.000000    0.000000    0.000000    0.000000    0.000000    0.000000    35.454216    5.896424    11.959720    0.000000    0.000000    0.000000    0.000000    0.000000    0.000000    24.777973    9.598236    24.870745    0.000000    0.000000    0.000000    0.000000    0.000000    0.000000    13.109313    10.775434    38.758266    0.000000    0.000000    0.000000    0.000000    0.000000    0.000000    -11.365204    -3.381513    22.023523    123.423180    -17.977554    130.061203    102.496605    -66.201927    -93.468300    77.995682    72.233742    -115.733063    74.992531    19.159033    -117.761162    0.000000    0.000000    -45.000004    0.000000    0.000000    -89.999992    -8.468613    -2.388324    15.636028    0.000000    0.000000    0.000000    0.000000    0.000000    0.000000    -0.689586    -0.882148    10.601725    10.130615    0.000000    -0.000000    5.065308    0.000000    -0.000000    7.189777    -0.075935    5.411057    20.261230    0.000000    -0.000000    10.130614    0.000000    -0.000000    15.349416    0.000000    -0.000000    30.698832    0.000000    -0.000000    15.349416    0.000000    -0.000000    121.436935    -60.560223    68.445808    -150.981491    48.374535    128.832138    14.992702    -35.015366    22.347307    0.438737    9.922230    0.641258    -50.222729    -13.969528    -18.268713    7.152045    22.319862    -28.813019    10.670074    -10.554701    15.080616    -3.514109    1.249395    4.925488    
3.234325    0.901804    1.548462    -38.575974    -8.007163    179.539749    -4.840763    9.205754    7.811298    -19.650229    12.546944    4.632897    -10.883109    6.137121    27.979074    -20.847330    -1.931817    27.128824    13.207834    -1.273633    -2.974735    12.674215    36.746632    -32.135082    17.162661    1.027949    -13.014025    56.478710    9.694232    -19.627497    14.702949    -9.581976    12.811426    -0.000000    0.000000    6.177423    -0.000000    0.000000    12.354845    45.000004    0.000000    -0.000000    0.000000    0.000000    0.000000    0.000000    0.000000    0.000000    35.301971    5.830511    11.996236    0.000000    0.000000    0.000000    0.000000    0.000000    0.000000    24.490810    9.428579    24.937693    0.000000    0.000000    0.000000    0.000000    0.000000    0.000000    12.716644    10.465186    38.830643    0.000000    0.000000    0.000000    0.000000    0.000000    0.000000    -11.698336    -3.267421    20.946215    123.291512    -18.067850    130.265091    102.496605    -66.201927    -93.468300    79.950607    72.347839    -117.881897    74.992531    19.159033    -117.761162    0.000000    0.000000    -45.000004    0.000000    0.000000    -89.999992    -8.468613    -2.388324    15.636028    0.000000    0.000000    0.000000    0.000000    0.000000    0.000000    -0.689586    -0.882148    10.601725    10.130615    0.000000    -0.000000    5.065308    0.000000    -0.000000    7.189777    -0.075935    5.411057    20.261230    0.000000    -0.000000    10.130614    0.000000    -0.000000    15.349416    0.000000    -0.000000    30.698832    0.000000    -0.000000    15.349416    0.000000    -0.000000    121.844208    -60.539528    68.611572    -151.338562    48.088409    129.032562    15.067049    -35.251953    22.575800    0.438737    9.922230    0.641258    -50.354752    -14.063247    -18.412048    7.287583    22.477564    -29.028183    11.325646    -10.025234    15.108116    -3.727687    0.923936    5.427337    
3.231063    0.901617    1.547544    -38.344330    -7.764480    179.207443    -5.412257    9.913735    7.483282    -18.895136    11.615470    4.255852    -11.580088    7.040671    27.786839    -20.124544    -2.528534    26.895132    12.925385    -0.961139    -1.563319    10.553205    36.573864    -29.005041    20.900406    0.442340    -17.491831    53.329540    10.558350    -18.794724    14.702949    -9.581976    12.811426    -0.000000    0.000000    6.177423    -0.000000    0.000000    12.354845    45.000004    0.000000    -0.000000    0.000000    0.000000    0.000000    0.000000    0.000000    0.000000    35.333931    5.844367    11.988592    0.000000    0.000000    0.000000    0.000000    0.000000    0.000000    24.551077    9.464237    24.923725    0.000000    0.000000    0.000000    0.000000    0.000000    0.000000    12.799029    10.530372    38.815628    0.000000    0.000000    0.000000    0.000000    0.000000    0.000000    -12.185989    -3.070093    19.964798    123.162804    -18.017509    130.498871    102.496605    -66.201927    -93.468300    82.331100    73.125374    -120.710915    74.992531    19.159033    -117.761162    0.000000    0.000000    -45.000004    0.000000    0.000000    -89.999992    -8.468613    -2.388324    15.636028    0.000000    0.000000    0.000000    0.000000    0.000000    0.000000    -0.689586    -0.882148    10.601725    10.130615    0.000000    -0.000000    5.065308    0.000000    -0.000000    7.189777    -0.075935    5.411057    20.261230    0.000000    -0.000000    10.130614    0.000000    -0.000000    15.349416    0.000000    -0.000000    30.698832    0.000000    -0.000000    15.349416    0.000000    -0.000000    121.715408    -60.328518    68.244865    -151.958145    47.559219    129.759979    15.235744    -35.747185    22.478300    0.438737    9.922230    0.641258    -50.572182    -14.256394    -18.233337    7.536600    22.902164    -29.287615    11.844134    -9.348870    15.852582    -3.499487    0.507689    5.292436    
